# xmcd
#
# Track frame offsets: 
#        150
#        12337
#        26659
#        41219
#        58746
#        68522
#        86608
#        103728
#        121434
#        135921
#        150433
#        162534
#        178197
#
# Disc length: 2526 seconds
#
# Revision: 2
# Processed by: cddbd v1.5.1PL0 Copyright (c) Steve Scherf et al.
# Submitted via: ExactAudioCopy v0.95b2
#
DISCID=aa09dc0d
DTITLE=Nashville Bluegrass Band - Twenty Year Blues
DYEAR=2004
DGENRE=Bluegrass
TTITLE0=Garfield's Blackberry Blossom
TTITLE1=Travelin' Railroad Man Blues
TTITLE2=That's All Right
TTITLE3=Old Riverman
TTITLE4=Pretty Red Lips
TTITLE5=Sitting on Top of the World
TTITLE6=Luckiest Man Alive
TTITLE7=Hush (Somebody's Callin' My Name)
TTITLE8=Gambling Barroom Blues
TTITLE9=There's a Better Way
TTITLE10=Rocking Chair Money
TTITLE11=Crossing the Cumberlands
TTITLE12=Tell Me Your Love Is Still True
EXTD=
EXTT0=
EXTT1=
EXTT2=
EXTT3=
EXTT4=
EXTT5=
EXTT6=
EXTT7=
EXTT8=
EXTT9=
EXTT10=
EXTT11=
EXTT12=
PLAYORDER=
